<mxfile host="app.diagrams.net" modified="2022-10-14T16:06:02.204Z" agent="5.0 (Windows NT 10.0; Win64; x64) AppleWebKit/537.36 (KHTML, like Gecko) Chrome/106.0.0.0 Safari/537.36" etag="rOmnEt8WDTMa4bvKpXNP" version="20.4.1" type="github">
  <diagram id="QJZGgAU2awXpEz1dOSdO" name="Sida-1">
    <mxGraphModel dx="1033" dy="954" grid="1" gridSize="10" guides="1" tooltips="1" connect="1" arrows="1" fold="1" page="1" pageScale="1" pageWidth="827" pageHeight="1169" math="0" shadow="0">
      <root>
        <mxCell id="0" />
        <mxCell id="1" parent="0" />
        <mxCell id="arN27AGo83IWLBoy1A-T-7" style="edgeStyle=orthogonalEdgeStyle;rounded=0;orthogonalLoop=1;jettySize=auto;html=1;" edge="1" parent="1" source="arN27AGo83IWLBoy1A-T-1" target="arN27AGo83IWLBoy1A-T-6">
          <mxGeometry relative="1" as="geometry" />
        </mxCell>
        <mxCell id="arN27AGo83IWLBoy1A-T-1" value="&lt;b&gt;GeometryShape&lt;/b&gt;" style="rounded=0;whiteSpace=wrap;html=1;fillColor=#e1d5e7;strokeColor=#9673a6;" vertex="1" parent="1">
          <mxGeometry x="354" y="30" width="120" height="60" as="geometry" />
        </mxCell>
        <mxCell id="arN27AGo83IWLBoy1A-T-30" style="edgeStyle=orthogonalEdgeStyle;rounded=0;orthogonalLoop=1;jettySize=auto;html=1;exitX=0.5;exitY=1;exitDx=0;exitDy=0;" edge="1" parent="1" source="arN27AGo83IWLBoy1A-T-2">
          <mxGeometry relative="1" as="geometry">
            <mxPoint x="294" y="300" as="targetPoint" />
          </mxGeometry>
        </mxCell>
        <mxCell id="arN27AGo83IWLBoy1A-T-2" value="Rectangle" style="rounded=0;whiteSpace=wrap;html=1;fillColor=#f8cecc;strokeColor=#b85450;" vertex="1" parent="1">
          <mxGeometry x="234" y="200" width="120" height="60" as="geometry" />
        </mxCell>
        <mxCell id="arN27AGo83IWLBoy1A-T-37" style="edgeStyle=orthogonalEdgeStyle;rounded=0;orthogonalLoop=1;jettySize=auto;html=1;" edge="1" parent="1" source="arN27AGo83IWLBoy1A-T-3">
          <mxGeometry relative="1" as="geometry">
            <mxPoint x="534" y="300" as="targetPoint" />
          </mxGeometry>
        </mxCell>
        <mxCell id="arN27AGo83IWLBoy1A-T-3" value="&lt;b&gt;Circle&lt;/b&gt;" style="rounded=0;whiteSpace=wrap;html=1;fillColor=#d5e8d4;strokeColor=#82b366;" vertex="1" parent="1">
          <mxGeometry x="474" y="200" width="120" height="60" as="geometry" />
        </mxCell>
        <mxCell id="arN27AGo83IWLBoy1A-T-28" style="edgeStyle=orthogonalEdgeStyle;rounded=0;orthogonalLoop=1;jettySize=auto;html=1;" edge="1" parent="1" source="arN27AGo83IWLBoy1A-T-4">
          <mxGeometry relative="1" as="geometry">
            <mxPoint x="100" y="300" as="targetPoint" />
          </mxGeometry>
        </mxCell>
        <mxCell id="arN27AGo83IWLBoy1A-T-4" value="&lt;b&gt;Cube&lt;/b&gt;" style="rounded=0;whiteSpace=wrap;html=1;fillColor=#dae8fc;strokeColor=#6c8ebf;" vertex="1" parent="1">
          <mxGeometry x="40" y="200" width="120" height="60" as="geometry" />
        </mxCell>
        <mxCell id="arN27AGo83IWLBoy1A-T-36" style="edgeStyle=orthogonalEdgeStyle;rounded=0;orthogonalLoop=1;jettySize=auto;html=1;" edge="1" parent="1" source="arN27AGo83IWLBoy1A-T-5">
          <mxGeometry relative="1" as="geometry">
            <mxPoint x="730" y="300" as="targetPoint" />
          </mxGeometry>
        </mxCell>
        <mxCell id="arN27AGo83IWLBoy1A-T-5" value="&lt;b&gt;Sphere&lt;/b&gt;" style="rounded=0;whiteSpace=wrap;html=1;fillColor=#fff2cc;strokeColor=#d6b656;" vertex="1" parent="1">
          <mxGeometry x="670" y="200" width="120" height="60" as="geometry" />
        </mxCell>
        <mxCell id="arN27AGo83IWLBoy1A-T-8" style="edgeStyle=orthogonalEdgeStyle;rounded=0;orthogonalLoop=1;jettySize=auto;html=1;entryX=0.5;entryY=0;entryDx=0;entryDy=0;exitX=0;exitY=0.5;exitDx=0;exitDy=0;" edge="1" parent="1" source="arN27AGo83IWLBoy1A-T-6" target="arN27AGo83IWLBoy1A-T-4">
          <mxGeometry relative="1" as="geometry">
            <Array as="points">
              <mxPoint x="100" y="150" />
            </Array>
          </mxGeometry>
        </mxCell>
        <mxCell id="arN27AGo83IWLBoy1A-T-9" style="edgeStyle=orthogonalEdgeStyle;rounded=0;orthogonalLoop=1;jettySize=auto;html=1;" edge="1" parent="1" source="arN27AGo83IWLBoy1A-T-6">
          <mxGeometry relative="1" as="geometry">
            <mxPoint x="290" y="190" as="targetPoint" />
          </mxGeometry>
        </mxCell>
        <mxCell id="arN27AGo83IWLBoy1A-T-10" style="edgeStyle=orthogonalEdgeStyle;rounded=0;orthogonalLoop=1;jettySize=auto;html=1;" edge="1" parent="1" source="arN27AGo83IWLBoy1A-T-6" target="arN27AGo83IWLBoy1A-T-5">
          <mxGeometry relative="1" as="geometry" />
        </mxCell>
        <mxCell id="arN27AGo83IWLBoy1A-T-11" style="edgeStyle=orthogonalEdgeStyle;rounded=0;orthogonalLoop=1;jettySize=auto;html=1;" edge="1" parent="1" source="arN27AGo83IWLBoy1A-T-6">
          <mxGeometry relative="1" as="geometry">
            <mxPoint x="540" y="190" as="targetPoint" />
          </mxGeometry>
        </mxCell>
        <mxCell id="arN27AGo83IWLBoy1A-T-6" value="&lt;b&gt;Template&lt;br&gt;shared functionality&lt;/b&gt;" style="rounded=0;whiteSpace=wrap;html=1;fillColor=#e1d5e7;strokeColor=#9673a6;" vertex="1" parent="1">
          <mxGeometry x="354" y="120" width="120" height="60" as="geometry" />
        </mxCell>
        <mxCell id="arN27AGo83IWLBoy1A-T-29" style="edgeStyle=orthogonalEdgeStyle;rounded=0;orthogonalLoop=1;jettySize=auto;html=1;entryX=0.5;entryY=0;entryDx=0;entryDy=0;" edge="1" parent="1" source="arN27AGo83IWLBoy1A-T-12" target="arN27AGo83IWLBoy1A-T-13">
          <mxGeometry relative="1" as="geometry" />
        </mxCell>
        <mxCell id="arN27AGo83IWLBoy1A-T-12" value="area" style="rounded=0;whiteSpace=wrap;html=1;fillColor=#dae8fc;strokeColor=#6c8ebf;" vertex="1" parent="1">
          <mxGeometry x="39" y="310" width="120" height="60" as="geometry" />
        </mxCell>
        <mxCell id="arN27AGo83IWLBoy1A-T-47" style="edgeStyle=orthogonalEdgeStyle;rounded=0;orthogonalLoop=1;jettySize=auto;html=1;entryX=0.5;entryY=0;entryDx=0;entryDy=0;" edge="1" parent="1" source="arN27AGo83IWLBoy1A-T-13" target="arN27AGo83IWLBoy1A-T-38">
          <mxGeometry relative="1" as="geometry" />
        </mxCell>
        <mxCell id="arN27AGo83IWLBoy1A-T-13" value="circumference" style="rounded=0;whiteSpace=wrap;html=1;fillColor=#dae8fc;strokeColor=#6c8ebf;" vertex="1" parent="1">
          <mxGeometry x="39" y="400" width="120" height="60" as="geometry" />
        </mxCell>
        <mxCell id="arN27AGo83IWLBoy1A-T-32" style="edgeStyle=orthogonalEdgeStyle;rounded=0;orthogonalLoop=1;jettySize=auto;html=1;entryX=0.5;entryY=0;entryDx=0;entryDy=0;" edge="1" parent="1" source="arN27AGo83IWLBoy1A-T-14" target="arN27AGo83IWLBoy1A-T-15">
          <mxGeometry relative="1" as="geometry" />
        </mxCell>
        <mxCell id="arN27AGo83IWLBoy1A-T-14" value="area" style="rounded=0;whiteSpace=wrap;html=1;fillColor=#f8cecc;strokeColor=#b85450;" vertex="1" parent="1">
          <mxGeometry x="233" y="310" width="120" height="60" as="geometry" />
        </mxCell>
        <mxCell id="arN27AGo83IWLBoy1A-T-50" style="edgeStyle=orthogonalEdgeStyle;rounded=0;orthogonalLoop=1;jettySize=auto;html=1;exitX=0.5;exitY=1;exitDx=0;exitDy=0;" edge="1" parent="1" source="arN27AGo83IWLBoy1A-T-15">
          <mxGeometry relative="1" as="geometry">
            <mxPoint x="293" y="490" as="targetPoint" />
          </mxGeometry>
        </mxCell>
        <mxCell id="arN27AGo83IWLBoy1A-T-15" value="circumference" style="rounded=0;whiteSpace=wrap;html=1;fillColor=#f8cecc;strokeColor=#b85450;" vertex="1" parent="1">
          <mxGeometry x="233" y="400" width="120" height="60" as="geometry" />
        </mxCell>
        <mxCell id="arN27AGo83IWLBoy1A-T-34" style="edgeStyle=orthogonalEdgeStyle;rounded=0;orthogonalLoop=1;jettySize=auto;html=1;entryX=0.5;entryY=0;entryDx=0;entryDy=0;" edge="1" parent="1" source="arN27AGo83IWLBoy1A-T-16" target="arN27AGo83IWLBoy1A-T-17">
          <mxGeometry relative="1" as="geometry" />
        </mxCell>
        <mxCell id="arN27AGo83IWLBoy1A-T-16" value="area" style="rounded=0;whiteSpace=wrap;html=1;fillColor=#d5e8d4;strokeColor=#82b366;" vertex="1" parent="1">
          <mxGeometry x="475" y="310" width="120" height="60" as="geometry" />
        </mxCell>
        <mxCell id="arN27AGo83IWLBoy1A-T-52" style="edgeStyle=orthogonalEdgeStyle;rounded=0;orthogonalLoop=1;jettySize=auto;html=1;entryX=0.5;entryY=0;entryDx=0;entryDy=0;" edge="1" parent="1" source="arN27AGo83IWLBoy1A-T-17" target="arN27AGo83IWLBoy1A-T-40">
          <mxGeometry relative="1" as="geometry" />
        </mxCell>
        <mxCell id="arN27AGo83IWLBoy1A-T-17" value="circumference" style="rounded=0;whiteSpace=wrap;html=1;fillColor=#d5e8d4;strokeColor=#82b366;" vertex="1" parent="1">
          <mxGeometry x="475" y="400" width="120" height="60" as="geometry" />
        </mxCell>
        <mxCell id="arN27AGo83IWLBoy1A-T-35" style="edgeStyle=orthogonalEdgeStyle;rounded=0;orthogonalLoop=1;jettySize=auto;html=1;entryX=0.5;entryY=0;entryDx=0;entryDy=0;" edge="1" parent="1" source="arN27AGo83IWLBoy1A-T-18" target="arN27AGo83IWLBoy1A-T-19">
          <mxGeometry relative="1" as="geometry" />
        </mxCell>
        <mxCell id="arN27AGo83IWLBoy1A-T-18" value="area" style="rounded=0;whiteSpace=wrap;html=1;fillColor=#fff2cc;strokeColor=#d6b656;" vertex="1" parent="1">
          <mxGeometry x="669" y="310" width="120" height="60" as="geometry" />
        </mxCell>
        <mxCell id="arN27AGo83IWLBoy1A-T-53" style="edgeStyle=orthogonalEdgeStyle;rounded=0;orthogonalLoop=1;jettySize=auto;html=1;entryX=0.5;entryY=0;entryDx=0;entryDy=0;" edge="1" parent="1" source="arN27AGo83IWLBoy1A-T-19" target="arN27AGo83IWLBoy1A-T-41">
          <mxGeometry relative="1" as="geometry" />
        </mxCell>
        <mxCell id="arN27AGo83IWLBoy1A-T-19" value="circumference" style="rounded=0;whiteSpace=wrap;html=1;fillColor=#fff2cc;strokeColor=#d6b656;" vertex="1" parent="1">
          <mxGeometry x="669" y="400" width="120" height="60" as="geometry" />
        </mxCell>
        <mxCell id="arN27AGo83IWLBoy1A-T-48" style="edgeStyle=orthogonalEdgeStyle;rounded=0;orthogonalLoop=1;jettySize=auto;html=1;entryX=0.5;entryY=0;entryDx=0;entryDy=0;" edge="1" parent="1" source="arN27AGo83IWLBoy1A-T-38" target="arN27AGo83IWLBoy1A-T-42">
          <mxGeometry relative="1" as="geometry" />
        </mxCell>
        <mxCell id="arN27AGo83IWLBoy1A-T-38" value="is_shape" style="rounded=0;whiteSpace=wrap;html=1;fillColor=#dae8fc;strokeColor=#6c8ebf;" vertex="1" parent="1">
          <mxGeometry x="39" y="500" width="120" height="60" as="geometry" />
        </mxCell>
        <mxCell id="arN27AGo83IWLBoy1A-T-51" style="edgeStyle=orthogonalEdgeStyle;rounded=0;orthogonalLoop=1;jettySize=auto;html=1;entryX=0.5;entryY=0;entryDx=0;entryDy=0;" edge="1" parent="1" source="arN27AGo83IWLBoy1A-T-39" target="arN27AGo83IWLBoy1A-T-43">
          <mxGeometry relative="1" as="geometry" />
        </mxCell>
        <mxCell id="arN27AGo83IWLBoy1A-T-39" value="is_shape" style="rounded=0;whiteSpace=wrap;html=1;fillColor=#f8cecc;strokeColor=#b85450;" vertex="1" parent="1">
          <mxGeometry x="234" y="500" width="120" height="60" as="geometry" />
        </mxCell>
        <mxCell id="arN27AGo83IWLBoy1A-T-58" style="edgeStyle=orthogonalEdgeStyle;rounded=0;orthogonalLoop=1;jettySize=auto;html=1;entryX=1;entryY=0.5;entryDx=0;entryDy=0;" edge="1" parent="1" source="arN27AGo83IWLBoy1A-T-40" target="arN27AGo83IWLBoy1A-T-44">
          <mxGeometry relative="1" as="geometry" />
        </mxCell>
        <mxCell id="arN27AGo83IWLBoy1A-T-40" value="is_shape" style="rounded=0;whiteSpace=wrap;html=1;fillColor=#d5e8d4;strokeColor=#82b366;" vertex="1" parent="1">
          <mxGeometry x="475" y="500" width="120" height="60" as="geometry" />
        </mxCell>
        <mxCell id="arN27AGo83IWLBoy1A-T-59" style="edgeStyle=orthogonalEdgeStyle;rounded=0;orthogonalLoop=1;jettySize=auto;html=1;entryX=1;entryY=0.5;entryDx=0;entryDy=0;" edge="1" parent="1" source="arN27AGo83IWLBoy1A-T-41" target="arN27AGo83IWLBoy1A-T-44">
          <mxGeometry relative="1" as="geometry">
            <mxPoint x="729" y="760" as="targetPoint" />
            <Array as="points">
              <mxPoint x="730" y="750" />
            </Array>
          </mxGeometry>
        </mxCell>
        <mxCell id="arN27AGo83IWLBoy1A-T-41" value="is_shape" style="rounded=0;whiteSpace=wrap;html=1;fillColor=#fff2cc;strokeColor=#d6b656;" vertex="1" parent="1">
          <mxGeometry x="669" y="500" width="120" height="60" as="geometry" />
        </mxCell>
        <mxCell id="arN27AGo83IWLBoy1A-T-61" style="edgeStyle=orthogonalEdgeStyle;rounded=0;orthogonalLoop=1;jettySize=auto;html=1;entryX=0;entryY=0.5;entryDx=0;entryDy=0;" edge="1" parent="1" source="arN27AGo83IWLBoy1A-T-42" target="arN27AGo83IWLBoy1A-T-44">
          <mxGeometry relative="1" as="geometry">
            <Array as="points">
              <mxPoint x="99" y="750" />
            </Array>
          </mxGeometry>
        </mxCell>
        <mxCell id="arN27AGo83IWLBoy1A-T-42" value="is_inside" style="rounded=0;whiteSpace=wrap;html=1;fillColor=#dae8fc;strokeColor=#6c8ebf;" vertex="1" parent="1">
          <mxGeometry x="39" y="600" width="120" height="60" as="geometry" />
        </mxCell>
        <mxCell id="arN27AGo83IWLBoy1A-T-60" style="edgeStyle=orthogonalEdgeStyle;rounded=0;orthogonalLoop=1;jettySize=auto;html=1;entryX=0;entryY=0.5;entryDx=0;entryDy=0;" edge="1" parent="1" source="arN27AGo83IWLBoy1A-T-43" target="arN27AGo83IWLBoy1A-T-44">
          <mxGeometry relative="1" as="geometry">
            <Array as="points">
              <mxPoint x="300" y="750" />
            </Array>
          </mxGeometry>
        </mxCell>
        <mxCell id="arN27AGo83IWLBoy1A-T-43" value="is_inside" style="rounded=0;whiteSpace=wrap;html=1;fillColor=#f8cecc;strokeColor=#b85450;" vertex="1" parent="1">
          <mxGeometry x="234" y="600" width="120" height="60" as="geometry" />
        </mxCell>
        <mxCell id="arN27AGo83IWLBoy1A-T-62" style="edgeStyle=orthogonalEdgeStyle;rounded=0;orthogonalLoop=1;jettySize=auto;html=1;entryX=0.5;entryY=0;entryDx=0;entryDy=0;" edge="1" parent="1" source="arN27AGo83IWLBoy1A-T-44" target="arN27AGo83IWLBoy1A-T-46">
          <mxGeometry relative="1" as="geometry" />
        </mxCell>
        <mxCell id="arN27AGo83IWLBoy1A-T-44" value="&lt;b&gt;Debugg&lt;/b&gt;&lt;br&gt;__repr__&lt;br&gt;__str__" style="rounded=0;whiteSpace=wrap;html=1;fillColor=#e1d5e7;strokeColor=#9673a6;" vertex="1" parent="1">
          <mxGeometry x="360" y="720" width="120" height="60" as="geometry" />
        </mxCell>
        <mxCell id="arN27AGo83IWLBoy1A-T-46" value="&lt;b&gt;Operator Overloard&lt;/b&gt;&lt;br&gt;__eq__&lt;br&gt;__gt__" style="rounded=0;whiteSpace=wrap;html=1;fillColor=#e1d5e7;strokeColor=#9673a6;" vertex="1" parent="1">
          <mxGeometry x="360" y="820" width="120" height="60" as="geometry" />
        </mxCell>
      </root>
    </mxGraphModel>
  </diagram>
</mxfile>
